Coordinates
version=1
nRows=8
nColumns=33
inDegrees=yes

Units are S.I. units (second, meters, Newtons, ...)
Angles are in degrees.

endheader
time	ground_thorax_rot_x	ground_thorax_rot_y	ground_thorax_rot_z	ground_thorax_tx	ground_thorax_ty	ground_thorax_tz	clav_prot_r	clav_elev_r	scapula_abduction_r	scapula_elevation_r	scapula_upward_rot_r	scapula_winging_r	shoulder_elv_r	plane_of_elev_r	axial_rot_r	elbow_flexion_r	pro_sup_r	wrist_flex_r	wrist_dev_r	clav_prot_l	clav_elev_l	scapula_abduction_l	scapula_elevation_l	scapula_upward_rot_l	scapula_winging_l	shoulder_elv_l	plane_of_elev_l	axial_rot_l	elbow_flexion_l	pro_sup_l	wrist_flex_l	wrist_dev_l
      5.69000000	    -17.44326498	    -35.96062191	     56.70093225	     59.68834143	    788.26568359	    -47.30628914	     28.33942638	    -45.00000000	     40.04842112	    -45.00000000	    -45.00000000	   1699.25228249	   1151.25761122	     19.71957670	   -146.98083539	   2520.11496741	    170.12514497	     11.45856796	     13.49852211	     -1.23794377	     30.16283306	    -26.50154003	    -45.00000000	    -45.00000000	   3680.35234317	  -2610.62220936	    133.29474892	   -100.96130669	   1789.42771743	     44.90968556	     13.20660012	    -14.55831492
      5.70000000	    -17.20261427	    -35.84100070	     57.03663893	     61.84303671	    786.77711258	    -47.12899304	     28.39815164	    -45.00000000	     40.00518762	    -45.00000000	    -45.00000000	   1699.30164595	   1151.22758544	     19.58937937	   -146.09025548	   2520.28484466	    169.88635203	     11.37667363	     13.41546723	     -1.28426571	     30.09155563	    -26.29557407	    -45.00000000	    -45.00000000	   3680.20058052	  -2610.77252340	    133.38094955	   -101.32957915	   1789.35900064	     44.62336960	     13.19104492	    -14.46663902
      5.71000000	    -16.92101643	    -35.59925178	     57.47774784	     63.86917659	    785.36176990	    -46.97618797	     28.45911866	    -45.00000000	     39.85328491	    -45.00000000	    -45.00000000	   1699.28900537	   1151.41385983	     19.35036266	   -145.18136930	   2520.33254438	    169.61133956	     11.40857697	     13.20595365	     -1.36361822	     30.01677782	    -26.01177895	    -45.00000000	    -45.00000000	   3679.69734197	  -2610.86123236	    133.62730735	   -101.82000364	   1789.35068680	     44.35429786	     13.03803752	    -14.29710119
      5.72000000	    -16.73560616	    -35.53306131	     57.78488456	     65.77086744	    784.02233173	    -46.84997255	     28.53415092	    -45.00000000	     39.72957825	    -45.00000000	    -45.00000000	   1699.23047811	   1151.28791268	     19.36078681	   -144.12865577	   2520.61049029	    169.30423428	     11.28761993	     13.18400924	     -1.42475361	     29.98405715	    -25.75940759	    -45.00000000	    -45.00000000	   3679.73947387	  -2610.92096826	    133.52992856	   -102.16911022	   1789.32622648	     44.06628970	     13.06403887	    -14.28000993
      5.73000000	    -16.51670890	    -35.32349705	     58.01957535	     67.54294908	    782.76393529	    -46.75211331	     28.55500259	    -45.00000000	     39.83853724	    -45.00000000	    -45.00000000	   1699.33037992	   1151.39019185	     19.06874922	   -143.39122848	   2520.63933242	    168.90472168	     11.27556970	     13.06595142	     -1.46734755	     29.91072524	    -25.65986871	    -45.00000000	    -45.00000000	   3679.43500405	  -2611.15315277	    133.78878586	   -102.51739958	   1789.28598265	     43.77712463	     12.98536873	    -14.18957746
      5.74000000	    -16.46741528	    -35.21261901	     58.17819927	     69.18735150	    781.58285851	    -46.68338635	     28.66126731	    -45.00000000	     39.59486733	    -45.00000000	    -45.00000000	   1699.23298629	   1151.25595978	     19.13019123	   -142.35186788	   2520.84370451	    168.53148200	     11.19031904	     13.06110734	     -1.49631119	     29.88144443	    -25.42042703	    -45.00000000	    -45.00000000	   3679.43425049	  -2611.12775811	    133.64209041	   -102.83329656	   1789.26703021	     43.49198133	     12.98919364	    -14.16975911
      5.75000000	    -16.30486378	    -34.97226377	     58.29263167	     70.69251035	    780.48189478	    -46.64409367	     28.63137086	    -45.00000000	     39.76289391	    -45.00000000	    -45.00000000	   1699.30362212	   1151.36815749	     18.92228140	   -141.73544374	   2520.85346584	    168.02476846	     11.12525440	     13.01796750	     -1.49550164	     29.82895588	    -25.42973910	    -45.00000000	    -45.00000000	   3679.35759313	  -2611.39275711	    133.72573456	   -103.03269892	   1789.10333422	     43.20686468	     13.03073421	    -14.12295355
      5.76000000	    -16.26767657	    -34.73569480	     58.34119439	     72.05582714	    779.45556134	    -46.63354398	     28.66391262	    -45.00000000	     39.67736732	    -45.00000000	    -45.00000000	   1699.30504574	   1151.42786448	     18.84084860	   -140.89818985	   2520.90834152	    167.59818924	     11.13940316	     12.92143051	     -1.53745800	     29.74637795	    -25.29389887	    -45.00000000	    -45.00000000	   3679.05039425	  -2611.46386728	    133.86358074	   -103.32212598	   1789.10520806	     42.94497664	     12.90177314	    -14.04956341
